<svg width="374" height="474" viewBox="0 0 374 474" fill="none" xmlns="http://www.w3.org/2000/svg">
<path d="M301.851 274.899C301.851 274.899 391.024 451.768 189.046 442.707C131.274 440.115 97.3233 419.57 83.551 389.066C82.4423 386.62 81.4651 384.103 80.6178 381.536C66.0797 337.391 90.3564 286.033 106.436 272.3C106.436 272.3 68.8015 225.783 92.0361 161.148C94.8229 153.391 99.4841 144.646 105.89 135.876C131.553 100.679 185.103 65.1702 256.957 92.4967C290.868 105.39 311.713 128.24 322.691 153.667C330.278 171.23 333.155 190.021 332.364 207.609C331.019 237.444 319.146 263.825 301.853 274.899H301.851Z" fill="#C9A9E9"/>
<g opacity="0.2">
<path d="M301.852 274.899C301.852 274.899 391.024 451.768 189.046 442.707C131.274 440.115 97.3233 419.57 83.551 389.066C90.9174 394.714 98.7666 399.717 107.014 403.988C141.209 421.689 181.86 426.57 219.281 417.468C235.116 413.612 250.347 407.355 264.47 399.212C277.778 391.543 290.695 381.495 296.506 367.275C301.958 353.942 300.385 338.653 295.895 324.971C291.097 310.321 282.421 296.219 269.746 287.811C266.593 285.72 266.39 281.2 269.384 278.889C284.087 267.539 295.734 252.239 302.667 235.009C306.098 226.475 308.339 216.615 304.493 208.27C299.799 198.042 280.445 190.234 279.922 178.525C279.384 166.374 310.328 158.004 319.667 154.687C320.661 154.329 321.672 153.987 322.691 153.669C330.278 171.231 333.155 190.023 332.364 207.611C331.019 237.446 319.146 263.827 301.853 274.901L301.852 274.899Z" fill="#000072"/>
</g>
<g opacity="0.6">
<path d="M332.363 207.607H332.346C332.346 207.607 309.967 113.773 230.127 94.6058C179.624 82.48 133.196 112.307 105.887 135.874C131.55 100.677 185.099 65.1685 256.954 92.495C314.277 114.295 334.294 164.544 332.361 207.607H332.363Z" fill="white"/>
</g>
<path d="M138.191 161.258C117.513 159.319 95.4871 181.629 92.5055 207.276C89.7787 230.724 97.1019 252.264 112.297 268.195C110.939 268.195 106.434 272.31 106.434 272.31C90.3497 286.043 66.0764 337.411 80.6211 381.555C89.0929 407.265 110.396 426.917 146.319 436.509C147.57 436.68 148.429 436.664 149.79 436.889C192.347 443.93 247.48 413.469 249.241 361.729C251.001 309.99 224.568 288.615 224.568 288.615C224.385 288.385 224.18 288.222 223.997 287.995C225.649 287.005 227.288 286.019 228.703 284.906C259.692 260.519 268.216 207.616 236.691 182.079C199.611 152.046 163.671 180.89 163.671 180.89C156.724 168.024 147.588 162.137 138.191 161.257V161.258Z" fill="#F2EAFA"/>
<path fill-rule="evenodd" clip-rule="evenodd" d="M117.876 210.692C117.876 203.397 121.179 197.483 125.254 197.483C129.329 197.483 132.632 203.397 132.632 210.692C132.632 217.987 129.329 223.902 125.254 223.902C121.179 223.902 117.876 217.987 117.876 210.692Z" fill="#000072"/>
<path fill-rule="evenodd" clip-rule="evenodd" d="M122.104 215.415C122.104 213.577 123.145 212.089 124.43 212.089C125.715 212.089 126.756 213.579 126.756 215.415C126.756 217.251 125.715 218.741 124.43 218.741C123.145 218.741 122.104 217.251 122.104 215.415Z" fill="white"/>
<path fill-rule="evenodd" clip-rule="evenodd" d="M191.217 227.429C191.217 218.956 196.017 212.089 201.94 212.089C207.863 212.089 212.662 218.958 212.662 227.429C212.662 235.901 207.859 242.77 201.94 242.77C196.02 242.77 191.217 235.901 191.217 227.429Z" fill="#000072"/>
<path fill-rule="evenodd" clip-rule="evenodd" d="M197.065 231.806C197.065 229.457 198.396 227.554 200.037 227.554C201.678 227.554 203.008 229.457 203.008 231.806C203.008 234.155 201.678 236.058 200.037 236.058C198.396 236.058 197.065 234.155 197.065 231.806Z" fill="white"/>
<path d="M203.589 446.301C198.827 446.301 193.936 446.188 188.902 445.963C158.266 444.588 133.08 438.16 114.044 426.859C95.9599 416.123 83.6725 401.215 77.523 382.55C63.218 339.134 85.3173 288.828 102.089 271.901C98.9497 267.426 92.389 257.015 87.4265 241.982C81.3302 223.514 76.649 194.308 88.9614 160.048C97.235 137.031 121.069 106.682 155.669 90.7637C187.022 76.3388 222.447 75.8843 258.113 89.4469C302.224 106.222 330.27 142.374 335.056 188.633C336.944 206.875 334.848 225.793 329.153 241.902C323.873 256.845 315.709 268.826 305.988 275.996C308.833 282.134 315.925 298.575 320.546 319.169C328.262 353.546 325.124 382.87 311.469 403.97C293.275 432.086 257.014 446.298 203.588 446.299L203.589 446.301ZM206.859 85.9876C190.093 85.9876 173.901 89.5534 158.395 96.6868C125.512 111.814 102.91 140.517 95.0992 162.254C83.4561 194.648 87.821 222.239 93.5344 239.68C99.7554 258.675 108.883 270.138 108.975 270.251C110.082 271.624 109.895 273.632 108.555 274.778C101.507 280.795 91.5383 296.024 85.1574 316.482C80.1583 332.51 75.8483 356.629 83.7175 380.511C95.577 416.506 132.049 436.885 189.196 439.451C194.154 439.674 198.981 439.784 203.659 439.785C254.685 439.785 289.068 426.581 305.988 400.448C336.811 352.845 299.321 277.121 298.938 276.362C298.186 274.871 298.685 273.051 300.09 272.151C320.227 259.254 332.206 224.413 328.572 189.307C324.047 145.586 297.522 111.411 255.797 95.5431C239.046 89.1738 222.697 85.9892 206.859 85.9892V85.9876Z" fill="#000072"/>
<mask id="mask0_42_46" style="mask-type:luminance" maskUnits="userSpaceOnUse" x="193" y="201" width="72" height="57">
<g clip-path="url(#clip0_42_46)">
<rect width="70.2781" height="56.1396" transform="translate(193.739 201.018)" fill="white"/>
<path d="M193.739 248.288L260.764 201.018C263.11 206.594 264.164 212.513 264.001 218.362L208.99 257.158C203.425 255.348 198.202 252.37 193.739 248.288Z" fill="url(#paint0_linear_42_46)" style="mix-blend-mode:multiply"/>
</g>
</mask>
<g mask="url(#mask0_42_46)">
<path d="M193.739 248.288L260.764 201.018C263.11 206.594 264.164 212.513 264.001 218.362L208.99 257.158C203.425 255.348 198.202 252.37 193.739 248.288Z" fill="url(#paint1_linear_42_46)"/>
</g>
<mask id="mask1_42_46" style="mask-type:luminance" maskUnits="userSpaceOnUse" x="180" y="177" width="77" height="65">
<g clip-path="url(#clip1_42_46)">
<rect width="76.3094" height="63.4477" transform="translate(180.034 177.997)" fill="white"/>
<path d="M180.034 218.165L236.989 177.997C244.533 180.874 251.335 185.939 256.343 193.038L187.706 241.445C182.699 234.345 180.212 226.237 180.034 218.165Z" fill="url(#paint2_linear_42_46)" style="mix-blend-mode:multiply"/>
</g>
</mask>
<g mask="url(#mask1_42_46)">
<path d="M180.034 218.165L236.989 177.997C244.533 180.874 251.335 185.939 256.343 193.038L187.706 241.445C182.699 234.345 180.212 226.237 180.034 218.165Z" fill="url(#paint3_linear_42_46)"/>
</g>
<path d="M222.745 263.765C197.791 263.765 177.49 243.464 177.49 218.51C177.49 193.555 197.791 173.254 222.745 173.254C247.7 173.254 268.001 193.555 268.001 218.51C268.001 243.464 247.7 263.765 222.745 263.765ZM222.745 179.773C201.387 179.773 184.009 197.149 184.009 218.508C184.009 239.866 201.385 257.244 222.745 257.244C244.105 257.244 261.482 239.868 261.482 218.508C261.482 197.148 244.105 179.773 222.745 179.773Z" fill="#000072"/>
<path d="M222.744 263.767C219.462 263.767 216.175 263.409 212.972 262.705C206.689 261.327 200.871 258.661 195.682 254.781C184.12 246.151 177.49 232.931 177.49 218.513C177.49 204.095 184.12 190.874 195.685 182.244C200.871 178.367 206.689 175.7 212.975 174.321C216.175 173.617 219.462 173.259 222.744 173.259C231.783 173.259 240.52 175.923 248.009 180.962C260.528 189.405 267.998 203.442 267.998 218.515C267.998 233.587 260.526 247.624 248.013 256.064C240.52 261.105 231.783 263.769 222.744 263.769V263.767ZM222.744 179.777C219.934 179.777 217.117 180.083 214.373 180.685C208.998 181.864 204.025 184.145 199.587 187.464C189.686 194.854 184.009 206.171 184.009 218.511C184.009 230.852 189.686 242.167 199.584 249.557C204.025 252.878 209 255.159 214.37 256.336C217.115 256.94 219.932 257.246 222.742 257.246C230.48 257.246 237.958 254.967 244.368 250.654C255.079 243.429 261.477 231.413 261.477 218.511C261.477 205.61 255.079 193.594 244.365 186.367C237.958 182.057 230.48 179.778 222.742 179.778L222.744 179.777Z" fill="#000072"/>
<mask id="mask2_42_46" style="mask-type:luminance" maskUnits="userSpaceOnUse" x="92" y="180" width="61" height="49">
<g clip-path="url(#clip2_42_46)">
<rect width="60.1049" height="48.014" transform="translate(92.5355 180.712)" fill="white"/>
<path d="M92.5355 221.14L149.859 180.712C151.865 185.48 152.765 190.542 152.627 195.545L105.579 228.726C100.819 227.178 96.3527 224.631 92.5355 221.14Z" fill="url(#paint4_linear_42_46)" style="mix-blend-mode:multiply"/>
</g>
</mask>
<g mask="url(#mask2_42_46)">
<path d="M92.5355 221.14L149.859 180.712C151.865 185.48 152.765 190.542 152.627 195.545L105.579 228.726C100.819 227.178 96.3527 224.631 92.5355 221.14Z" fill="url(#paint5_linear_42_46)"/>
</g>
<mask id="mask3_42_46" style="mask-type:luminance" maskUnits="userSpaceOnUse" x="80" y="161" width="67" height="55">
<g clip-path="url(#clip3_42_46)">
<rect width="65.2639" height="54.2634" transform="translate(80.8142 161.022)" fill="white"/>
<path d="M80.8142 195.377L129.526 161.024C135.978 163.484 141.796 167.816 146.078 173.887L87.3766 215.287C83.0949 209.216 80.9674 202.28 80.8142 195.377Z" fill="url(#paint6_linear_42_46)" style="mix-blend-mode:multiply"/>
</g>
</mask>
<g mask="url(#mask3_42_46)">
<path d="M80.8142 195.377L129.526 161.024C135.978 163.484 141.796 167.816 146.078 173.887L87.3766 215.287C83.0949 209.216 80.9674 202.28 80.8142 195.377Z" fill="url(#paint7_linear_42_46)"/>
</g>
<path d="M116.727 234.241C95.0193 234.241 77.3599 216.58 77.3599 194.874C77.3599 173.168 95.0193 155.507 116.727 155.507C138.435 155.507 156.095 173.168 156.095 194.874C156.095 216.58 138.435 234.241 116.727 234.241ZM116.727 162.026C98.6151 162.026 83.8789 176.762 83.8789 194.874C83.8789 212.986 98.6151 227.722 116.727 227.722C134.84 227.722 149.576 212.986 149.576 194.874C149.576 176.762 134.84 162.026 116.727 162.026Z" fill="#000072"/>
<path d="M158.5 268.192C143.701 268.004 144.264 249.986 144.67 245.202C144.735 244.468 144.791 244.045 144.791 244.045L138.484 246.66C138.157 245.886 137.864 245.12 137.62 244.361C137.114 242.821 136.764 241.313 136.567 239.863C134.726 226.719 144.643 217.354 153.168 215.765C159.085 214.664 163.991 216.034 167.545 219.978C167.691 220.141 167.838 220.304 167.969 220.476C170.733 223.792 172.622 228.765 173.446 235.43C173.528 236.041 173.601 236.669 173.658 237.305C174.31 244.37 175.572 268.412 158.499 268.192H158.5Z" fill="#FDCB38"/>
<g opacity="0.2">
<path d="M173.446 235.43C172.069 236.009 170.691 236.579 169.314 237.158C167.139 238.07 164.946 238.984 162.64 239.514C160.538 239.995 158.37 240.15 156.268 240.671C153.946 241.25 151.753 242.275 149.544 243.221C147.931 243.922 146.31 244.583 144.671 245.202C144.736 244.468 144.793 244.045 144.793 244.045L138.485 246.66C138.159 245.886 137.866 245.12 137.621 244.361C137.115 242.821 136.766 241.313 136.569 239.863C140.025 239.733 143.097 239.137 145.86 236.522C148.289 234.223 149.829 230.997 152.64 229.204C155.346 227.484 158.768 227.394 161.727 226.173C164.375 225.064 166.616 223.003 167.969 220.476C170.733 223.792 172.622 228.764 173.446 235.43Z" fill="#000072"/>
</g>
<g opacity="0.6">
<path d="M167.546 219.978C160.929 220.214 154.32 221.34 148.998 225.129C143.571 228.999 140.351 235.152 138.632 241.46C138.347 242.495 138.004 243.579 137.621 244.361C132.519 228.886 143.701 217.533 153.17 215.765C159.086 214.664 163.992 216.034 167.546 219.978Z" fill="white"/>
</g>
<path d="M158.733 271.202C158.643 271.202 158.554 271.202 158.462 271.2C153.508 271.137 149.517 269.381 146.601 265.979C142.324 260.995 141.517 253.567 141.52 248.658L139.639 249.435C138.119 250.066 136.368 249.352 135.722 247.832C131.483 237.856 133.636 230.085 136.188 225.324C139.602 218.951 146.053 214.04 152.62 212.811C158.405 211.731 163.361 212.712 167.357 215.728C172.587 219.68 175.717 226.845 176.657 237.027C177.368 244.724 177.528 258.756 170.618 266.238C167.575 269.532 163.578 271.2 158.737 271.2L158.733 271.202ZM144.796 241.042C145.452 241.042 146.103 241.257 146.637 241.673C147.49 242.334 147.924 243.401 147.773 244.47C147.322 247.739 147.049 257.281 151.172 262.074C152.938 264.128 155.347 265.147 158.537 265.187C161.791 265.244 164.275 264.237 166.195 262.159C171.723 256.173 171.161 242.976 170.663 237.581C169.895 229.274 167.496 223.377 163.726 220.529C161.137 218.573 157.773 217.967 153.723 218.725C148.876 219.632 144.074 223.338 141.485 228.167C139.794 231.323 138.35 236.266 140.243 242.678L143.646 241.272C144.017 241.118 144.407 241.044 144.795 241.044L144.796 241.042Z" fill="#000072"/>
<path d="M144.796 244.048L172.843 234.14C172.843 234.14 165.254 256.417 157.526 256.775C149.799 257.136 150.373 242.077 150.373 242.077" fill="#FF4239"/>
<path d="M157.258 259.79C155.114 259.79 153.178 258.991 151.638 257.463C148.823 254.671 147.841 249.83 147.511 246.279L145.8 246.883C144.237 247.434 142.516 246.615 141.963 245.049C141.409 243.482 142.231 241.766 143.797 241.212L149.304 239.267C149.351 239.249 149.398 239.232 149.444 239.217L171.845 231.305C172.932 230.92 174.142 231.193 174.961 232.002C175.78 232.813 176.065 234.02 175.694 235.11C173.757 240.792 166.739 259.359 157.67 259.78C157.531 259.787 157.397 259.79 157.262 259.79H157.258ZM153.4 244.198C153.544 247.233 154.194 251.53 155.875 253.194C156.321 253.634 156.756 253.802 157.388 253.772C160.042 253.649 164.365 246.792 167.678 239.154L153.401 244.198H153.4Z" fill="#000072"/>
<path d="M182.216 210.867C181.282 210.867 180.356 210.469 179.712 209.697C169.719 197.729 154.119 200.772 153.459 200.907C151.7 201.27 149.975 200.139 149.609 198.38C149.243 196.62 150.363 194.897 152.121 194.526C152.933 194.353 172.171 190.489 184.716 205.518C185.87 206.9 185.685 208.956 184.303 210.11C183.694 210.619 182.952 210.867 182.216 210.867Z" fill="#000072"/>
<path d="M108.099 293.319C108.953 295.006 109.913 296.48 111.009 297.563C112.119 298.648 113.29 299.174 114.457 299.319C115.635 299.464 116.954 299.254 118.349 298.878C119.749 298.471 121.194 297.872 122.664 297.21L122.825 297.136C124.298 296.472 126.031 297.128 126.694 298.6C126.857 298.963 126.94 299.357 126.952 299.732C126.955 299.885 127.007 300.259 127.035 300.547C127.077 300.859 127.113 301.172 127.178 301.485C127.297 302.109 127.431 302.735 127.606 303.341C127.957 304.556 128.42 305.713 129.051 306.782C129.351 307.338 129.744 307.809 130.133 308.333C130.584 308.769 131.006 309.314 131.567 309.703C132.615 310.634 133.954 311.257 135.434 312.017C133.887 312.467 132.143 312.665 130.428 312.239C129.992 312.154 129.551 312.059 129.144 311.873C128.73 311.706 128.295 311.546 127.891 311.336C127.505 311.103 127.107 310.869 126.717 310.616C126.326 310.364 126.003 310.043 125.642 309.75C124.27 308.511 123.193 306.977 122.437 305.345C122.063 304.526 121.731 303.692 121.507 302.826C121.38 302.399 121.284 301.959 121.187 301.518C121.095 301.05 121.039 300.667 120.986 300.058L125.274 302.58L123.95 303.206C123.501 303.402 123.025 303.566 122.564 303.745C122.099 303.919 121.602 304.065 121.119 304.208C120.626 304.341 120.107 304.44 119.602 304.551C117.543 304.904 115.192 304.929 112.965 303.985C111.863 303.526 110.857 302.813 110.068 301.969C109.283 301.113 108.715 300.143 108.349 299.157C107.644 297.175 107.573 295.16 108.101 293.318L108.099 293.319Z" fill="#000072"/>
<path d="M111.22 266.983C115.297 270.158 119.259 273.129 123.3 275.926C127.34 278.711 131.437 281.295 135.682 283.565C139.924 285.839 144.292 287.829 148.861 289.45C153.424 291.13 158.177 292.307 163.226 293.507C158.214 294.819 152.862 294.921 147.686 294.03C142.494 293.163 137.458 291.353 132.835 288.861C128.202 286.374 123.98 283.194 120.28 279.544C116.621 275.863 113.363 271.733 111.222 266.983H111.22Z" fill="#000072"/>
<path d="M264.883 223.439C263.44 223.439 262.121 222.474 261.733 221.012C261.272 219.272 262.309 217.488 264.05 217.027L296.676 208.385C297.595 208.117 303.393 206.61 308.587 209.532C311.828 211.355 314.024 214.421 315.109 218.645C315.559 220.388 314.508 222.166 312.765 222.615C311.021 223.063 309.244 222.014 308.795 220.271C308.159 217.801 307.045 216.148 305.391 215.217C302.452 213.564 298.537 214.636 298.5 214.648C298.464 214.659 298.427 214.669 298.39 214.679L265.72 223.333C265.441 223.407 265.159 223.442 264.883 223.442V223.439Z" fill="#000072"/>
<path d="M158.9 112.437L157.873 113.244L157.392 113.627L140.718 126.723L119.155 143.667L115.968 146.169L114.966 146.96L114.616 147.236C114.177 147.016 113.744 146.788 113.321 146.569C113.321 146.569 113.316 146.566 113.305 146.56C112.987 146.389 112.669 146.226 112.351 146.054C81.8314 129.755 73.551 110.001 76.704 103.652C76.8838 103.301 77.0869 102.991 77.3316 102.723C77.7228 102.299 78.2123 102.014 78.7816 101.851C79.2377 101.713 79.7438 101.656 80.2982 101.663C81.7565 101.679 83.5094 102.169 85.3672 102.943C91.5284 105.477 98.8882 111.027 100.803 112.518C99.5074 111.466 98.1623 110.123 96.8339 108.558C87.9509 98.1917 79.3609 78.5263 85.4655 74.4843C85.7352 74.2962 86.0365 74.1414 86.3694 74.0282C86.4759 73.9949 86.5808 73.9633 86.6874 73.93C93.7608 72.0638 107.999 87.4659 114.249 94.7524C114.811 95.4133 115.307 95.9993 115.732 96.5053C114.901 95.3317 114.037 93.89 113.19 92.2753C109.196 84.6791 105.554 73.3274 107.029 68.8126C107.322 67.932 107.803 67.3127 108.512 67.028C108.585 67.0031 108.65 66.9714 108.723 66.9548C114.338 65.1286 121.55 79.8314 134.492 91.8757C138.053 95.1919 141.475 98.225 144.582 100.874C152.91 108.004 158.9 112.438 158.9 112.438V112.437Z" fill="#C9A9E9"/>
<g opacity="0.6">
<path d="M101.821 114.018C97.0618 115.395 92.0011 113.505 87.5929 111.255C84.1136 109.478 80.7309 107.441 77.8792 104.776C77.5279 104.449 77.1301 104.066 76.7056 103.65C76.8854 103.299 77.0884 102.989 77.3332 102.721C77.7244 102.297 78.2138 102.012 78.7831 101.849C79.2393 101.711 79.7454 101.654 80.2997 101.661C81.758 101.677 83.511 102.167 85.3688 102.941C91.5299 105.475 98.8897 111.025 100.804 112.516C99.509 111.464 98.1639 110.121 96.8354 108.556C97.463 109.15 98.0906 109.746 98.7182 110.341C99.8919 111.449 101.09 112.581 101.823 114.016L101.821 114.018Z" fill="white"/>
</g>
<g opacity="0.6">
<path d="M115.447 96.4885C107.437 95.3232 100.631 90.2058 94.2902 85.1684C92.9052 84.0597 91.5201 82.951 90.2966 81.6725C88.3239 79.6032 86.744 77.0928 85.4639 74.4842C85.7336 74.296 86.0349 74.1412 86.3678 74.028C86.4743 73.9947 86.5792 73.9631 86.6858 73.9298C93.7592 72.0637 107.998 87.4657 114.247 94.7522C114.647 95.3315 115.046 95.9092 115.446 96.4885H115.447Z" fill="white"/>
</g>
<g opacity="0.6">
<path d="M158.314 113.619C158.004 113.635 157.703 113.635 157.393 113.627C154.483 113.506 151.73 112.062 149.195 110.579C144.232 107.661 139.504 104.378 134.811 101.043C129.84 97.5225 124.836 93.8885 121.079 89.0874C118.935 86.3406 117.248 83.2775 115.562 80.2211C113.558 76.5703 111.552 72.9279 109.767 69.1623C109.424 68.4365 109.075 67.704 108.723 66.9532C114.339 65.127 121.55 79.8298 134.492 91.8741C138.053 95.1903 141.475 98.2234 144.582 100.872C147.596 104.393 151.174 107.489 154.703 110.521C155.762 111.433 156.814 112.339 157.873 113.243C158.019 113.364 158.166 113.496 158.312 113.617L158.314 113.619Z" fill="white"/>
</g>
<g opacity="0.2">
<path d="M147.197 132.012C142.014 136.935 135.485 140.219 128.845 142.885C125.023 144.424 121.079 145.794 116.97 146.112C116.636 146.137 116.303 146.152 115.968 146.169C114.761 146.209 113.556 146.161 112.349 146.054C80.1415 128.859 72.7019 107.809 77.3298 102.723C77.721 102.299 78.2104 102.014 78.7798 101.851C79.8968 103.489 80.9805 105.16 82.0393 106.732C83.1796 108.418 84.1335 110.244 85.4537 111.792C87.125 113.765 89.3092 115.207 91.46 116.633C95.8366 119.518 100.236 122.412 105.013 124.579C116.12 129.6 129.086 130.366 140.716 126.722C141.433 126.502 142.143 126.257 142.843 126.004C144.938 125.238 147.749 124.529 149.038 126.354C150.276 128.13 148.768 130.511 147.197 132.009V132.012Z" fill="#000072"/>
</g>
<g opacity="0.2">
<path d="M128.853 99.2189C126.058 98.0203 122.734 98.8926 119.905 97.7922C118.65 97.3111 117.575 96.4638 116.548 95.5914C115.341 94.581 114.184 93.5222 113.06 92.4052C109.066 84.809 105.424 73.4572 106.899 68.9425C107.673 71.363 108.57 73.7336 109.694 76.0725C114.07 85.1919 120.663 93.2592 128.853 99.2172V99.2189Z" fill="#000072"/>
</g>
<g opacity="0.2">
<path d="M114.298 116.83C113.842 117.401 112.995 117.401 112.269 117.328C104.267 116.497 97.2083 111.867 90.6809 107.165C88.8547 105.853 87.0218 104.491 85.2373 103.073C91.3984 105.606 98.7565 111.157 100.673 112.648C90.3546 104.271 77.3398 77.2711 86.2394 74.158C86.3459 74.1247 86.4508 74.0931 86.5574 74.0598C87.8043 77.2794 89.0345 80.5139 90.6975 83.6037C96.7039 94.7856 104.903 104.621 113.476 113.977C114.21 114.776 114.976 115.981 114.298 116.828V116.83Z" fill="#000072"/>
</g>
<path d="M158.122 113.446C153.884 111.841 150.165 109.535 146.626 106.995C143.13 104.404 139.747 101.666 136.524 98.741C134.914 97.271 133.338 95.7927 131.766 94.2562C130.162 92.6897 128.628 91.0683 127.143 89.4235C124.17 86.1373 121.375 82.7496 118.665 79.4052C117.308 77.7355 115.968 76.0874 114.615 74.5342C113.278 73.021 111.846 71.5027 110.596 70.6704C109.98 70.2442 109.521 70.1793 109.572 70.1909C109.584 70.2026 109.591 70.1809 109.596 70.1926C109.596 70.1926 109.596 70.1876 109.596 70.1826C109.604 70.1776 109.657 70.171 109.686 70.1576C109.752 70.1343 109.809 70.0827 109.854 70.0378C109.964 70.0095 110.023 69.8497 110.042 69.8713C110.053 69.8713 110.053 69.8164 110.048 69.8463C110.045 69.873 110.037 69.8963 110.023 69.9196C109.902 70.176 109.799 71.0133 109.837 71.849C109.869 72.708 109.964 73.6386 110.137 74.5941C110.821 78.4297 112.158 82.4084 113.741 86.1856C114.538 88.0784 115.417 89.9379 116.388 91.6959C116.869 92.5765 117.378 93.4272 117.908 94.2163C118.429 95.0003 119 95.7561 119.502 96.2572L114.646 100.59C110.253 95.1984 105.462 89.8896 100.395 85.1835C97.8493 82.8612 95.1924 80.6221 92.4606 78.9707C91.1138 78.155 89.7055 77.4974 88.5818 77.2594C88.0574 77.1795 87.5846 77.1362 87.4081 77.2311C87.3798 77.236 87.3482 77.2361 87.3182 77.2361C87.2999 77.2544 87.2816 77.2693 87.2616 77.281C87.2333 77.3126 87.1501 77.291 87.1451 77.3326C87.1285 77.3626 87.1035 77.3759 87.0652 77.3792C87.0519 77.4225 87.0319 77.4558 86.9969 77.4791C86.7439 77.7688 86.4259 79.0489 86.5724 80.4906C86.6723 81.9339 87.0036 83.5137 87.4481 85.0836C88.3587 88.2399 89.7005 91.4045 91.252 94.4477C92.8052 97.4958 94.5864 100.452 96.5641 103.212C98.5385 105.939 100.754 108.594 103.128 110.427L99.1178 115.566C96.3311 113.384 93.3029 111.253 90.2748 109.382C88.7516 108.45 87.2084 107.579 85.6635 106.827C84.1319 106.081 82.5488 105.456 81.1937 105.177C80.5195 105.022 79.9285 105.027 79.6805 105.079C79.5523 105.1 79.544 105.13 79.5673 105.1C79.5756 105.092 79.6205 105.094 79.6122 105.055C79.6056 105.08 79.5872 105.119 79.5506 105.134C79.4358 105.293 79.2843 105.761 79.2427 106.344C79.1844 106.921 79.2177 107.621 79.3359 108.348C79.8003 111.303 81.3053 114.483 83.1131 117.389C84.9627 120.314 87.1867 123.076 89.6489 125.643C92.111 128.207 94.7546 130.65 97.6445 132.801C100.541 134.945 103.604 136.85 106.532 138.992C109.482 141.118 112.394 143.319 114.978 146.397L114.988 146.409C115.404 146.905 115.339 147.646 114.843 148.063C114.596 148.27 114.287 148.358 113.99 148.335C109.934 147.997 106.329 146.537 102.95 144.699C99.5523 142.878 96.4742 140.511 93.5143 138.022C87.5646 133.096 81.8696 127.659 77.5896 120.857C75.497 117.434 73.6225 113.77 72.8884 109.324C72.7136 108.21 72.6287 107.031 72.7486 105.749C72.8701 104.484 73.1498 103.078 74.0404 101.648C74.2901 101.295 74.5431 100.952 74.8345 100.619C75.1857 100.286 75.552 99.9379 75.9498 99.6766C76.7655 99.1488 77.6329 98.8325 78.4253 98.6844C80.0151 98.3947 81.3252 98.5562 82.4722 98.7876C84.7745 99.2754 86.674 100.089 88.5002 100.962C90.3147 101.844 92.0244 102.815 93.6842 103.83C97.0069 105.888 100.097 108.058 103.19 110.479L103.195 110.482C104.613 111.591 104.863 113.64 103.752 115.059C102.642 116.477 100.596 116.728 99.1794 115.618C95.8783 113.039 93.506 110.073 91.2686 107.02C89.0729 103.952 87.1434 100.749 85.4421 97.4092C83.7441 94.0681 82.2591 90.6055 81.1771 86.8715C80.651 84.9953 80.2182 83.0526 80.065 80.9168C80.0167 80.3924 80.0351 79.8164 80.0251 79.2687C80.0667 78.681 80.0833 78.1167 80.1965 77.4958C80.3763 76.2922 80.8308 74.8988 81.7514 73.607C82.0044 73.2873 82.2725 72.976 82.5488 72.678C82.8651 72.4083 83.1947 72.1486 83.5343 71.9056C83.8672 71.6459 84.2385 71.5127 84.6014 71.3296L85.1524 71.0882L85.7151 70.9367C87.2683 70.4956 88.6384 70.6621 89.8653 70.8701C92.2558 71.3962 94.097 72.3717 95.8183 73.3872C99.2227 75.4581 102.059 77.8936 104.81 80.3907C107.53 82.9078 110.095 85.5297 112.567 88.2199C115.048 90.9218 117.408 93.6403 119.747 96.5352C120.879 97.9353 120.661 99.9862 119.261 101.118C117.949 102.179 116.066 102.054 114.904 100.883L114.891 100.87C113.877 99.8414 113.17 98.8509 112.492 97.8504C111.823 96.8515 111.229 95.8527 110.678 94.8455C109.567 92.8329 108.608 90.7952 107.734 88.7227C106.003 84.5642 104.548 80.3391 103.711 75.6962C103.504 74.5342 103.366 73.3189 103.321 72.0288C103.308 70.7253 103.296 69.3619 103.934 67.5956C104.025 67.3692 104.122 67.1461 104.222 66.9247C104.32 66.705 104.5 66.4436 104.648 66.2122C104.919 65.7478 105.422 65.2617 105.908 64.8505C106.175 64.6574 106.476 64.4859 106.774 64.3278C106.92 64.2529 107.085 64.1663 107.22 64.1147L107.606 63.9882C108.119 63.8084 108.662 63.7285 109.209 63.6852C110.275 63.6419 111.322 63.8367 112.104 64.1563C112.545 64.3011 112.86 64.4893 113.236 64.664C113.573 64.8488 113.886 65.0419 114.195 65.2367C116.516 66.8349 117.992 68.5545 119.517 70.2392C120.992 71.9306 122.366 73.6253 123.724 75.295C126.436 78.6344 129.101 81.9106 131.988 84.9337C133.428 86.4453 134.918 87.8936 136.449 89.272L141.22 93.5004C147.515 99.2554 154.104 104.602 159.418 111.699L159.429 111.714C159.804 112.214 159.702 112.921 159.203 113.294C158.885 113.532 158.474 113.575 158.126 113.446H158.122Z" fill="#000072"/>
<path d="M213.673 311.848L213.591 313.078L204.537 444.301C166.584 459.827 100.15 467.568 100.15 467.568C78.0408 477.208 72.0012 451.741 72.0012 451.741L37.9858 415.492L43.6492 287.283L73.3946 318.292L80.1184 325.3C92.9052 321.739 102.261 328.756 102.261 328.756L213.673 311.846V311.848Z" fill="#FFBF1F"/>
<g opacity="0.2">
<path d="M213.591 313.079L204.537 444.303C166.584 459.828 100.15 467.569 100.15 467.569C78.0408 477.21 72.0012 451.743 72.0012 451.743L37.9858 415.493L43.6492 287.284L73.3946 318.293C73.2314 322.498 72.4906 326.647 71.0473 330.664C69.1645 335.879 65.3256 341.202 59.7921 341.624C65.0077 344.949 68.0724 351.942 65.7085 357.654C63.3446 363.367 54.8861 365.901 50.4613 361.583C51.8064 367.108 55.0976 372.129 59.6289 375.568C54.9844 383.334 52.1144 392.788 54.6581 401.476C57.2001 410.163 66.5642 417.131 75.2674 414.663C77.5814 419.397 84.6148 419.943 89.0646 417.1C93.5061 414.256 95.9666 409.236 98.209 404.46C101.99 396.424 105.772 388.38 109.552 380.344C112.707 373.637 115.933 366.817 120.937 361.348C133.944 347.143 155.214 345.35 173.363 338.921C182.181 335.8 190.526 331.383 198.098 325.898C202.139 322.973 207.934 315.743 213.589 313.079H213.591Z" fill="#000072"/>
</g>
<path d="M90.7609 473.018C87.7461 473.018 84.9044 472.357 82.2542 471.032C73.531 466.675 69.9718 456.477 69.0696 453.386L35.6052 417.724C35.0043 417.083 34.6863 416.228 34.7263 415.35L40.3947 287.145C40.4513 285.841 41.2819 284.698 42.5022 284.238C43.7224 283.777 45.1008 284.09 46.0031 285.032L81.1704 321.693C91.8064 319.439 100.017 323.527 103.007 325.352L213.183 308.63C214.165 308.48 215.154 308.784 215.882 309.455C216.609 310.126 216.994 311.09 216.926 312.077L207.789 444.531C207.705 445.77 206.922 446.854 205.772 447.325C169.105 462.324 107.518 469.975 100.999 470.754C97.4049 472.264 93.9855 473.02 90.7643 473.02L90.7609 473.018ZM41.3003 414.267L74.38 449.517C74.7696 449.932 75.0426 450.441 75.1758 450.995C75.1991 451.094 77.8027 461.54 85.1958 465.212C88.9814 467.093 93.5727 466.88 98.8465 464.581C99.1412 464.453 99.4525 464.368 99.7721 464.331C100.421 464.257 164.036 456.72 201.425 442.041L210.142 315.686L102.754 331.986C101.886 332.117 101.009 331.896 100.308 331.372C99.9852 331.135 91.9862 325.385 80.994 328.447C79.8403 328.768 78.5985 328.43 77.7678 327.563L46.5741 295.042L41.3019 414.267H41.3003Z" fill="#000072"/>
<path d="M47.5198 291.321L62.2076 284.827L95.8068 316.171L193.177 300.98L206.598 312.395L102.261 328.763C102.261 328.763 92.6821 321.629 80.1185 325.307L47.5198 291.323V291.321Z" fill="white"/>
<path d="M102.261 331.34C101.71 331.34 101.169 331.163 100.721 330.829C100.375 330.576 91.9494 324.528 80.8407 327.779C79.9168 328.049 78.9213 327.782 78.257 327.09L45.6584 293.104C45.0757 292.498 44.826 291.646 44.9892 290.82C45.1523 289.996 45.7067 289.302 46.4758 288.963L61.162 282.468C62.1059 282.051 63.2079 282.237 63.962 282.941L96.6456 313.429L192.777 298.432C193.521 298.313 194.273 298.53 194.844 299.014L208.266 310.429C209.033 311.082 209.349 312.122 209.076 313.091C208.803 314.062 207.991 314.782 206.995 314.939L102.659 331.307C102.525 331.328 102.392 331.338 102.259 331.338L102.261 331.34ZM87.438 321.668C94.9942 321.668 100.684 324.701 102.855 326.059L200.649 310.719L192.407 303.709L96.2045 318.718C95.4187 318.839 94.6263 318.596 94.0486 318.057L61.693 287.874L51.9261 292.192L80.9273 322.429C83.2113 321.891 85.3921 321.669 87.4364 321.669L87.438 321.668Z" fill="#000072"/>
<path d="M78.5603 333.63C79.0347 342.706 79.143 351.774 79.1796 360.84C79.1663 369.906 79.0714 378.969 78.8167 388.03C78.7035 392.56 78.5919 397.091 78.4188 401.621L78.1808 408.415L77.8861 415.209C77.4716 424.265 76.9921 433.321 76.2596 442.37C76.228 442.765 75.8818 443.059 75.4872 443.028C75.121 442.998 74.8413 442.698 74.828 442.34C74.4784 433.268 74.3818 424.2 74.3519 415.134L74.3452 408.335L74.3952 401.536C74.4135 397.003 74.4934 392.473 74.5716 387.942C74.6998 378.879 74.9895 369.82 75.359 360.762C75.7785 351.706 76.2696 342.65 77.127 333.602C77.1653 333.208 77.5149 332.918 77.9094 332.955C78.269 332.988 78.5403 333.282 78.5586 333.632L78.5603 333.63Z" fill="#000072"/>
<path d="M100.859 337.771C101.295 347.844 101.365 357.909 101.364 367.97C101.312 378.032 101.179 388.092 100.886 398.148C100.754 403.178 100.623 408.205 100.431 413.233L100.165 420.774L99.842 428.313C99.3909 438.367 98.8715 448.417 98.1007 458.463C98.0707 458.858 97.7261 459.154 97.3316 459.122C96.9637 459.094 96.6823 458.789 96.6707 458.43C96.3594 448.36 96.3011 438.295 96.3095 428.233L96.3311 420.687L96.4093 413.141C96.4476 408.11 96.5458 403.081 96.644 398.052C96.8105 387.994 97.1385 377.937 97.5463 367.884C98.0041 357.83 98.5335 347.781 99.4292 337.737C99.4641 337.343 99.812 337.051 100.208 337.086C100.571 337.118 100.846 337.416 100.861 337.771H100.859Z" fill="#000072"/>
<path d="M200.33 308.806L108.319 321.247L199.696 304.781C200.804 304.581 201.863 305.317 202.063 306.425C202.263 307.533 201.527 308.593 200.418 308.793C200.392 308.798 200.357 308.803 200.33 308.806Z" fill="#000072"/>
<path d="M55.8835 286.176L84.7465 317.84L53.0068 289.061C52.1728 288.303 52.1095 287.015 52.8653 286.179C53.6228 285.345 54.9113 285.282 55.747 286.038C55.7952 286.081 55.8418 286.127 55.8851 286.174L55.8835 286.176Z" fill="#000072"/>
<path d="M299.659 340.869C295.201 355.856 285.724 371.438 273.996 380.15C245.945 400.995 208.375 410.393 172.868 410.075C137.362 409.757 157.377 388.332 157.377 388.332C157.377 388.332 136.253 397.882 130.288 389.945C124.485 382.211 140.418 370.313 141.265 369.693C140.263 370.223 117.085 382.562 112.717 370.597C112.196 369.171 112.171 367.566 112.595 365.83C113.549 361.819 116.857 357.135 121.763 352.424L121.771 352.415C132.985 341.641 152.585 330.762 171.826 327.649C199.697 323.143 219.624 337.877 239.656 333.704C250.926 331.348 256.451 327.821 259.125 325.179C259.133 325.17 259.141 325.162 259.15 325.154C260.503 323.817 261.122 322.708 261.382 322.106C261.52 321.796 261.562 321.616 261.562 321.616L261.798 321.38L281.675 301.773C281.903 301.756 282.123 301.739 282.343 301.733C291.811 301.252 297.566 305.335 300.353 311.944C303.491 319.36 302.904 329.955 299.661 340.867L299.659 340.869Z" fill="#C9A9E9"/>
<g opacity="0.6">
<path d="M299.659 340.869C300.58 333.657 299.634 326.191 297.157 319.337C295.902 315.881 294.239 312.517 291.738 309.835C290.207 308.189 288.389 306.835 286.579 305.492C285.552 304.726 283.033 303.511 282.472 302.37C282.366 302.151 282.326 301.939 282.343 301.734C291.811 301.253 297.566 305.337 300.353 311.946C303.491 319.362 302.904 329.956 299.661 340.869H299.659Z" fill="white"/>
</g>
<g opacity="0.2">
<path d="M273.996 380.15C245.945 400.995 208.375 410.393 172.868 410.075C144.598 409.822 151.525 396.188 155.527 390.637C153.196 391.248 150.824 391.631 148.429 391.51C141.918 393.328 133.669 394.443 130.288 389.945C124.485 382.211 140.418 370.313 141.265 369.694C141.102 369.783 140.336 370.191 139.146 370.752C137.207 372.219 135.349 373.809 133.205 374.924C129.611 376.799 125.194 377.1 121.404 375.796C117.468 375.771 114.125 374.443 112.715 370.597C112.071 368.838 112.186 366.8 112.96 364.583C112.838 362.92 113.098 361.34 113.946 360.125C114.761 358.959 115.331 358.731 116.015 358.943C117.523 356.815 119.471 354.623 121.76 352.424C120.048 356.409 119.902 359.294 120.839 361.332C122.266 361.853 123.724 362.097 125.475 361.853C131.735 360.997 137.032 357.012 142.459 353.76C165.938 339.702 196.751 338.806 221.012 351.478C210.989 349.302 198.965 348.603 188.91 350.584C178.845 352.572 170.225 355.89 160.976 360.549C158.159 361.968 155.797 363.504 152.149 365.342C147.696 367.874 146.959 369.434 145.639 371.683C147.089 373.516 149.168 374.503 151.344 375.235C156.453 376.963 170.576 376.694 179.484 373.116C194.055 367.256 205.156 362.637 225.236 362.457C207.363 368.919 189.085 375.562 172.231 385.056C177.398 387.623 197.894 394.664 244.094 376.604C287.76 359.53 298.003 324.992 300.35 311.946C307.798 329.557 294.262 365.089 273.994 380.15H273.996Z" fill="#000072"/>
</g>
<g opacity="0.6">
<path d="M239.654 333.706C250.924 331.35 256.449 327.822 259.123 325.18C257.184 327.429 254.885 329.329 252.889 330.526C247.518 333.769 241.259 335.162 235.123 336.507C229.606 337.714 224.034 339.247 218.392 338.993C204.322 338.36 194.636 333.814 183.325 333.994C177.62 334.083 167.695 336.261 162.194 337.752C142.056 343.213 128.087 352.089 112.595 365.83C113.549 361.819 116.857 357.135 121.763 352.424L121.771 352.415C132.985 341.641 152.585 330.762 171.826 327.649C199.697 323.143 219.624 337.877 239.656 333.704L239.654 333.706Z" fill="white"/>
</g>
<path d="M262.621 321.872C262.542 322.33 262.464 322.577 262.361 322.903C262.249 323.191 262.146 323.499 262.013 323.772C261.755 324.335 261.439 324.844 261.117 325.362C260.437 326.339 259.659 327.258 258.812 328.06C257.105 329.658 255.211 331.032 253.21 332.101C249.223 334.33 244.953 335.766 240.661 336.807C236.145 337.842 231.44 338.059 226.954 337.661C222.439 337.301 218.139 336.357 213.947 335.378C209.749 334.394 205.665 333.291 201.592 332.405C199.554 331.914 197.52 331.589 195.486 331.198L192.434 330.757L190.909 330.544L189.384 330.409C185.314 329.918 181.25 330.058 177.207 330.276L174.192 330.647C173.187 330.769 172.181 330.875 171.181 331.083C170.177 331.258 169.175 331.446 168.179 331.683L166.682 332.014L165.196 332.399C157.265 334.466 149.571 337.654 142.338 341.626C138.725 343.622 135.231 345.831 131.908 348.243C128.59 350.656 125.427 353.277 122.637 356.159C121.234 357.591 119.925 359.092 118.807 360.656C117.683 362.209 116.709 363.839 116.126 365.422C115.532 367.01 115.437 368.458 115.767 369.449C116.027 370.053 116.301 370.636 116.699 371.02C117.097 371.416 117.56 371.749 118.172 372.002C118.803 372.234 119.534 372.41 120.351 372.487C121.179 372.542 122.048 372.563 122.963 372.467C124.783 372.32 126.696 371.894 128.592 371.355C130.493 370.814 132.392 370.12 134.267 369.354C136.12 368.586 138.038 367.704 139.729 366.807C141.32 365.963 143.295 366.569 144.14 368.16C144.901 369.593 144.485 371.336 143.233 372.287L143.207 372.307C139.964 374.772 136.692 377.816 134.427 380.999C133.315 382.582 132.467 384.291 132.311 385.633C132.231 386.302 132.303 386.822 132.499 387.296C132.569 387.411 132.597 387.538 132.677 387.656C132.764 387.769 132.83 387.899 132.913 388.014C133.012 388.114 133.103 388.22 133.188 388.332C133.301 388.422 133.411 388.513 133.514 388.615C134.435 389.339 136.1 389.783 137.974 389.83C139.85 389.888 141.89 389.647 143.926 389.244C145.967 388.843 148.024 388.278 150.06 387.619C152.076 386.963 154.165 386.184 156.025 385.37C157.678 384.646 159.606 385.4 160.328 387.053C160.861 388.27 160.593 389.633 159.756 390.559L159.749 390.566C159.456 390.889 159.048 391.381 158.712 391.814C158.365 392.269 158.023 392.728 157.71 393.201C157.074 394.143 156.509 395.115 156.062 396.086C155.148 398.024 154.776 399.981 155.174 401.277C155.351 401.939 155.724 402.502 156.311 403.061L156.519 403.276L156.786 403.469C156.969 403.597 157.125 403.74 157.322 403.865C157.758 404.087 158.117 404.37 158.62 404.558C160.49 405.417 162.774 405.943 165.108 406.291C167.46 406.627 169.909 406.757 172.369 406.808C174.865 406.82 177.408 406.793 179.924 406.75C184.966 406.567 190.009 406.282 195.023 405.716C205.054 404.636 215.001 402.776 224.708 400.085C234.415 397.394 243.849 393.78 252.817 389.286C253.932 388.713 255.069 388.178 256.168 387.576L259.443 385.731C261.657 384.553 263.721 383.134 265.854 381.824C266.931 381.183 267.924 380.424 268.953 379.715L272.021 377.559C273.939 376.131 275.754 374.538 277.475 372.826C280.916 369.4 283.964 365.512 286.638 361.37C289.311 357.226 291.62 352.826 293.54 348.272C295.449 343.717 296.999 339.002 297.974 334.213C298.955 329.434 299.278 324.539 298.749 319.945C298.224 315.365 296.841 311.08 293.991 308.195C292.594 306.722 290.814 305.571 288.725 304.701C286.633 303.835 284.262 303.322 281.75 302.865L281.72 302.86C281.114 302.75 280.713 302.169 280.823 301.563C280.899 301.14 281.209 300.815 281.594 300.697C284.194 299.903 287.014 299.61 289.909 299.985C292.789 300.363 295.762 301.516 298.177 303.496C299.386 304.471 300.473 305.61 301.357 306.865C302.251 308.112 303.024 309.432 303.606 310.807C304.791 313.55 305.419 316.407 305.684 319.214C306.198 324.847 305.472 330.289 304.377 335.545C303.265 340.807 301.615 345.896 299.551 350.8C297.485 355.703 295.006 360.426 292.115 364.907C289.223 369.385 285.91 373.627 282.076 377.446C280.159 379.354 278.109 381.155 275.91 382.793L272.681 385.065C271.597 385.811 270.546 386.609 269.418 387.285C267.18 388.663 265.003 390.15 262.686 391.388L259.253 393.321C258.101 393.952 256.916 394.513 255.747 395.11C246.366 399.813 236.539 403.571 226.464 406.364C216.39 409.159 206.093 411.082 195.719 412.199C190.533 412.783 185.321 413.079 180.107 413.266C177.493 413.311 174.903 413.339 172.268 413.326C169.599 413.269 166.914 413.133 164.184 412.743C161.455 412.327 158.673 411.743 155.867 410.466C155.168 410.189 154.468 409.727 153.779 409.337C153.436 409.117 153.098 408.846 152.762 408.596L152.261 408.21L151.783 407.749C150.515 406.557 149.406 404.902 148.91 403.076C148.39 401.258 148.417 399.425 148.703 397.804C148.993 396.172 149.522 394.704 150.148 393.347C150.778 391.989 151.512 390.739 152.311 389.554C152.707 388.958 153.13 388.388 153.563 387.822C154.016 387.245 154.42 386.742 154.989 386.116L158.715 391.311C156.459 392.299 154.33 393.083 152.076 393.822C149.839 394.546 147.556 395.175 145.189 395.641C142.822 396.104 140.373 396.424 137.756 396.347C136.454 396.316 135.084 396.143 133.686 395.771C132.293 395.395 130.831 394.781 129.514 393.762C129.195 393.492 128.878 393.219 128.574 392.935C128.291 392.623 128.013 392.304 127.743 391.981C127.491 391.646 127.272 391.29 127.045 390.937C126.826 390.581 126.659 390.174 126.476 389.788C125.802 388.188 125.64 386.399 125.843 384.842C126.04 383.273 126.528 381.894 127.104 380.654C127.685 379.414 128.367 378.298 129.093 377.256C130.556 375.187 132.193 373.389 133.906 371.716C134.765 370.882 135.644 370.081 136.544 369.307C137.462 368.525 138.334 367.809 139.376 367.035L142.854 372.533C140.784 373.63 138.828 374.521 136.752 375.385C134.688 376.227 132.586 377 130.395 377.624C128.202 378.245 125.943 378.764 123.518 378.968C121.116 379.169 118.477 379.111 115.735 378.055C114.373 377.506 113.04 376.63 111.958 375.5C110.851 374.36 110.155 373 109.624 371.641C109.512 371.263 109.409 370.88 109.313 370.497C109.266 370.306 109.213 370.113 109.178 369.923L109.121 369.355L109.035 368.218C109.041 367.854 109.073 367.498 109.098 367.136C109.199 365.69 109.574 364.401 110.002 363.183C110.899 360.769 112.163 358.731 113.521 356.838C114.881 354.942 116.381 353.231 117.954 351.623C121.089 348.39 124.508 345.566 128.069 342.975C131.632 340.386 135.347 338.042 139.183 335.921C146.862 331.706 155.009 328.322 163.553 326.091L165.156 325.676L166.776 325.317C167.851 325.064 168.94 324.857 170.034 324.668C171.117 324.444 172.228 324.32 173.335 324.186L176.656 323.782C181.101 323.514 185.575 323.431 189.974 323.88L191.628 324.01L193.265 324.218L196.536 324.654C198.685 325.032 200.854 325.383 202.968 325.831C207.23 326.67 211.395 327.671 215.496 328.571C223.699 330.431 231.662 331.823 239.303 330.451C243.323 329.713 247.303 328.821 251.034 327.441L252.429 326.913C252.877 326.713 253.321 326.507 253.779 326.317C254.247 326.136 254.66 325.894 255.099 325.675C255.547 325.463 255.955 325.21 256.368 324.961C257.227 324.488 257.971 323.905 258.722 323.312C259.066 322.999 259.421 322.683 259.724 322.34C259.89 322.174 260.017 321.999 260.167 321.824C260.287 321.668 260.435 321.431 260.501 321.376L261.001 320.955C261.419 320.602 262.043 320.656 262.396 321.073C262.591 321.303 262.661 321.601 262.616 321.877L262.621 321.872Z" fill="#000072"/>
<path d="M139.334 367.067C140.877 366.043 142.302 365.204 143.806 364.338C145.292 363.484 146.796 362.673 148.309 361.888C151.339 360.323 154.418 358.874 157.548 357.548C163.806 354.897 170.252 352.708 176.846 351.148C180.137 350.351 183.47 349.735 186.819 349.291C190.165 348.824 193.539 348.576 196.907 348.522C203.644 348.377 210.375 349.172 216.831 350.85C210.255 349.703 203.573 349.47 197 350.15C193.714 350.473 190.453 350.982 187.238 351.701C184.022 352.397 180.844 353.256 177.725 354.288C171.475 356.314 165.436 358.934 159.636 361.969C156.736 363.487 153.897 365.117 151.132 366.845C149.75 367.711 148.385 368.598 147.05 369.519C145.732 370.426 144.36 371.402 143.195 372.322L143.16 372.349C141.745 373.466 139.692 373.224 138.577 371.809C137.46 370.394 137.701 368.342 139.116 367.226C139.186 367.171 139.263 367.116 139.334 367.068V367.067Z" fill="#000072"/>
<path d="M154.39 386.186C159.396 384.113 164.375 382.172 169.401 380.27C174.425 378.38 179.462 376.536 184.542 374.809C189.622 373.088 194.715 371.41 199.869 369.925C205.019 368.442 210.207 367.075 215.452 366.044C210.338 367.604 205.346 369.48 200.403 371.465C195.461 373.451 190.595 375.625 185.752 377.836C180.912 380.051 176.123 382.382 171.359 384.751C166.606 387.127 161.85 389.565 157.208 392.066L157.188 392.076C155.602 392.931 153.621 392.339 152.765 390.751C151.91 389.164 152.504 387.183 154.09 386.327C154.187 386.276 154.29 386.226 154.39 386.184V386.186Z" fill="#000072"/>
<path d="M327.693 396.244C327.187 404.948 312.429 414.891 294.793 422.232C274.418 430.724 266.799 461.79 249.767 457.601C246.491 456.794 244.005 454.528 242.164 451.229C240.306 447.871 239.124 443.438 238.497 438.377C237.177 427.701 238.309 414.23 240.656 402.184C241.081 400.017 241.528 397.946 242.009 395.975C245.089 383.261 249.263 374.516 253.37 368.886C257.558 363.133 261.673 360.631 264.462 360.451C265.171 360.411 265.79 360.516 266.303 360.752C268.324 361.69 269.025 364.053 268.911 367.133C268.683 373.865 264.552 383.987 261.895 389.862C261.773 390.131 261.65 390.391 261.543 390.644C261.535 390.661 261.527 390.669 261.518 390.677C260.834 392.169 260.28 393.309 259.962 393.954C259.962 393.97 259.954 393.979 259.945 393.994C259.872 394.132 259.815 394.247 259.774 394.337C259.937 394.052 260.108 393.757 260.28 393.464C260.786 392.617 261.339 391.745 261.951 390.849C262.073 390.669 262.196 390.491 262.326 390.311C262.595 389.92 262.88 389.529 263.165 389.138C263.173 389.129 263.173 389.121 263.181 389.113C274.02 374.33 296.732 355.773 304.45 363.14C304.58 363.261 304.703 363.393 304.825 363.531C306.373 365.299 306.666 367.753 306.12 370.564C305.998 371.2 305.835 371.851 305.622 372.52C302.467 382.87 290.235 396.774 286.649 400.692C286.225 401.149 285.923 401.475 285.768 401.638C286.323 401.067 286.95 400.489 287.635 399.918C287.651 399.91 287.66 399.902 287.668 399.893C288.402 399.282 289.208 398.68 290.08 398.076C290.097 398.067 290.113 398.051 290.128 398.042C301.342 390.316 322.328 384.138 326.744 392.093C326.784 392.149 326.817 392.214 326.851 392.272C327.511 393.559 327.771 394.881 327.69 396.241L327.693 396.244Z" fill="#AE7EDE"/>
<g opacity="0.6">
<path d="M327.693 396.244C322.714 394.525 317.27 394.052 311.99 394.395C305.519 394.395 298.82 396.522 292.626 398.169C291.81 398.388 290.433 399.041 290.084 398.079C290.1 398.07 290.117 398.054 290.132 398.045C301.345 390.319 322.331 384.142 326.748 392.096C326.787 392.152 326.821 392.217 326.854 392.275C327.515 393.562 327.775 394.884 327.693 396.244Z" fill="white"/>
</g>
<g opacity="0.6">
<path d="M306.98 368.848C306.859 369.484 306.696 370.135 306.483 370.804C304.885 369.892 302.962 369.509 301.112 369.565C298.43 369.639 295.855 370.543 293.378 371.561C289.238 373.281 285.252 375.375 281.422 377.706C278.016 379.768 274.731 382.018 271.512 384.357C270.321 385.212 264.552 390.771 263.068 389.898C262.799 389.735 263.206 388.798 264.022 387.421C264.03 387.413 264.03 387.405 264.039 387.396C274.878 372.614 297.59 354.057 305.307 361.423C305.437 361.545 305.56 361.676 305.682 361.814C307.23 363.582 307.523 366.036 306.977 368.848H306.98Z" fill="white"/>
</g>
<g opacity="0.6">
<path d="M268.91 367.135C264.68 369.808 258.299 374.413 257.55 375.072C253.483 378.675 249.88 382.815 246.891 387.353C246.141 388.493 244.006 393.571 242.01 395.975C245.089 383.261 249.263 374.516 253.37 368.886C257.558 363.133 261.673 360.631 264.462 360.451C265.171 360.411 265.79 360.516 266.303 360.752C268.324 361.69 269.025 364.053 268.911 367.133L268.91 367.135Z" fill="white"/>
</g>
<g opacity="0.2">
<path d="M326.854 392.275C326.821 392.219 326.789 392.154 326.747 392.096C324.4 394.753 321.915 397.263 319.185 399.504C312.592 404.922 304.841 408.542 297.034 412.102C292.567 413.316 288.216 414.962 284.076 417.025C282.111 417.996 279.561 419.006 277.948 417.531C276.27 415.999 277.182 413.211 278.379 411.28C281.5 406.236 285.722 402.071 290.13 398.045C289.241 398.656 288.419 399.276 287.67 399.895C287.661 399.903 287.653 399.912 287.636 399.92C286.952 400.491 286.325 401.069 285.77 401.64C285.925 401.476 286.226 401.15 286.651 400.694C290.465 396.522 304.091 381.029 306.12 370.566C300.929 376.059 295.501 381.323 289.845 386.327C284.042 391.47 277.695 396.497 270.115 398.169C268.542 398.52 266.822 398.698 265.364 398.005C262.845 396.815 262.161 393.719 261.95 390.85C261.925 390.516 261.91 390.19 261.893 389.865C261.803 390.141 261.682 390.403 261.542 390.647C261.533 390.664 261.525 390.672 261.517 390.681C260.107 393.149 256.563 394.266 254.06 392.823C252.243 391.779 251.184 389.783 250.573 387.779C249.579 384.486 249.579 381.024 250.207 377.666C250.761 374.659 252.602 371.789 253.368 368.889C248.625 375.393 243.792 386.053 240.654 402.189C238.307 414.233 237.175 427.706 238.495 438.382C238.61 439.327 238.748 440.256 238.903 441.16C239.01 441.746 239.123 442.325 239.238 442.888C239.922 446.083 240.884 448.919 242.163 451.233C244.004 454.535 246.489 456.8 249.766 457.606C266.797 461.794 274.418 430.729 294.791 422.237C315.173 413.745 331.717 401.798 326.852 392.279L326.854 392.275ZM268.52 432.167C266.629 435.663 264.422 438.981 261.935 442.086C260.426 443.96 258.267 445.941 255.945 445.314C254.324 444.882 253.263 443.219 253.043 441.556C252.824 439.885 253.288 438.215 253.817 436.617C255.504 431.531 257.949 426.609 261.617 422.698C263.849 420.319 269.196 417.328 271.347 421.696C272.749 424.541 269.839 429.748 268.519 432.169L268.52 432.167Z" fill="#000072"/>
</g>
<path d="M252.988 461.268C251.71 461.268 250.382 461.109 248.99 460.766C232.754 456.765 232.629 426.376 237.453 401.566C243.794 368.971 256.211 360.356 259.865 358.492C262.73 357.03 265.504 356.782 267.678 357.794C269.499 358.641 270.839 360.185 271.554 362.256C272.709 365.612 272.101 370.478 270.761 375.5C279.564 366.802 290.253 359.171 298.332 358.298C303.057 357.786 305.802 359.697 307.28 361.385C312.935 367.844 307.157 379.464 300.363 389.073C307.575 386.208 315.349 384.511 321.097 385.339C326.335 386.093 328.695 388.72 329.756 390.791C331.209 393.634 331.355 396.834 330.178 400.041C325.883 411.743 304.881 421.561 296.05 425.242C287.643 428.745 281.487 436.607 275.536 444.213C268.695 452.953 262.184 461.268 252.988 461.268ZM250.55 454.435C257.503 456.148 262.619 450.136 270.402 440.195C276.569 432.314 283.561 423.383 293.543 419.224C310.037 412.352 321.73 404.142 324.059 397.796C324.617 396.276 324.582 394.992 323.952 393.759C323.431 392.74 322.16 392.077 320.172 391.791C311.044 390.474 294.114 397.634 288.069 403.957C288.051 403.977 288.033 403.995 288.014 404.013C286.774 405.315 284.713 405.369 283.408 404.128C282.105 402.89 282.05 400.829 283.286 399.522C283.301 399.505 283.32 399.489 283.335 399.472C293.961 388.29 306.471 370.354 302.378 365.678C302.101 365.364 301.372 364.525 299.033 364.779C288.898 365.873 269.255 383.927 262.534 396.106C261.675 397.664 259.724 398.245 258.152 397.41C256.581 396.575 255.968 394.634 256.777 393.05C261.36 384.063 267.064 369.226 265.392 364.376C265.204 363.83 265.013 363.742 264.931 363.704C264.751 363.652 263.811 363.684 262.233 364.631C256.24 368.227 248.264 380.145 243.856 402.81C239.246 426.509 240.065 451.851 250.55 454.433V454.435Z" fill="#000072"/>
<path d="M64.2836 332.304C63.909 337.561 61.1456 340.314 59.0347 341.668C57.6663 342.54 56.5742 342.833 56.5742 342.833C66.2796 362.539 47.0071 362.685 47.0071 362.685C63.095 385.723 39.0363 385.577 22.6638 372.39C10.4796 362.579 9.85202 348.179 10.3248 341.463C10.3648 340.942 10.4064 340.461 10.4547 340.037C10.6095 338.595 10.7809 337.754 10.7809 337.754C3.72416 327.861 1.76812 312.172 4.3268 304.195C4.67806 303.12 5.10922 302.174 5.61363 301.416C6.14301 300.626 6.75397 300.031 7.4465 299.649C11.2354 297.579 14.9844 299.51 17.3882 301.408C17.9992 301.898 18.5286 302.379 18.9448 302.785C18.9448 302.785 18.9448 302.793 18.9531 302.793C19.6539 303.494 20.0535 303.992 20.0535 303.992C20.0535 303.992 18.9864 293.904 22.3841 288.044C22.8485 287.245 23.3946 286.527 24.0471 285.925C24.723 285.28 25.5138 284.776 26.426 284.433C28.6268 283.617 31.4702 283.406 35.284 285.452C39.058 287.481 43.7675 291.726 49.7089 299.795C51.7548 302.558 53.939 305.776 56.2779 309.5C56.3112 309.557 56.3428 309.607 56.3844 309.664C56.3928 309.68 56.4011 309.697 56.4094 309.712C60.6395 316.484 62.8552 321.911 63.7925 326.248C64.2902 328.562 64.4201 330.568 64.2819 332.302L64.2836 332.304Z" fill="#C9A9E9"/>
<g opacity="0.6">
<path d="M25.3456 314.122C21.2387 310.569 17.0652 307.032 12.3307 304.366C10.1949 303.159 7.95417 302.149 5.61523 301.416C6.14462 300.626 6.75557 300.031 7.4481 299.649C11.237 297.579 14.986 299.51 17.3898 301.408C18.0008 301.898 18.5302 302.379 18.9464 302.785C18.9464 302.785 18.9464 302.793 18.9547 302.793C21.0822 306.567 23.2164 310.348 25.3439 314.122H25.3456Z" fill="white"/>
</g>
<g opacity="0.6">
<path d="M62.3356 335.555C60.8041 327.544 56.0197 320.584 51.1703 314.023C44.4881 304.986 37.3647 296.111 28.5234 289.167C27.0734 288.035 25.5818 286.95 24.0486 285.925C24.7245 285.28 25.5152 284.776 26.4275 284.433C28.6283 283.617 31.4716 283.406 35.2855 285.452C36.6872 286.471 37.9507 287.653 39.2059 288.843C42.865 292.322 46.4991 295.908 49.7103 299.795C52.2524 302.86 54.543 306.119 56.3842 309.664C56.3925 309.68 56.4009 309.697 56.4092 309.712C58.0806 312.931 59.3424 316.346 60.606 319.743C62.5054 324.838 64.4032 330.526 62.3339 335.553L62.3356 335.555Z" fill="white"/>
</g>
<g opacity="0.2">
<path d="M64.3984 332.043C64.3651 332.132 64.3252 332.214 64.2836 332.304C63.0367 335.335 61.4152 338.229 59.4908 340.902C59.311 341.139 59.1329 341.392 59.0347 341.668C57.6663 342.54 56.5742 342.833 56.5742 342.833C66.2796 362.539 47.007 362.685 47.007 362.685C63.095 385.723 39.0363 385.577 22.6638 372.39C10.4796 362.579 9.85202 348.179 10.3248 341.463C10.3498 341.438 10.3731 341.415 10.3981 341.39C12.4274 350.012 19.3543 356.606 26.6075 361.691C29.6073 363.802 32.8252 365.79 36.4277 366.499C40.0302 367.2 44.1287 366.392 46.5492 363.631C38.0974 359.392 28.735 356.802 21.1389 351.162C16.982 348.082 13.5361 344.21 10.4547 340.038C10.6095 338.597 10.7809 337.756 10.7809 337.756C3.72416 327.862 1.76812 312.174 4.3268 304.197C7.91262 315.695 13.5527 326.722 22.1011 335.181C30.9924 343.974 43.2897 349.752 55.7751 349.099C56.3045 349.074 56.8755 349.018 57.2668 348.668C57.8211 348.162 57.7878 347.283 57.5681 346.557C56.6391 343.469 53.4845 341.7 50.6245 340.193C43.0866 336.233 35.5887 331.831 29.9486 325.442C23.9256 318.621 20.463 310.023 17.3899 301.408C19.0363 302.712 20.0551 303.992 20.0551 303.992C20.0551 303.992 18.988 293.904 22.3857 288.044C22.484 291.833 23.4362 295.623 24.8795 299.111C30.3798 312.444 42.9068 323.241 57.2817 324.465C59.5141 324.653 62.2043 324.946 63.7925 326.249C64.3718 326.722 64.7946 327.325 65.0061 328.107C65.3557 329.411 64.9078 330.789 64.3951 332.044L64.3984 332.043Z" fill="#000072"/>
</g>
<path d="M44.4298 384.591C37.0751 384.591 27.6444 380.586 20.6192 374.929C5.21388 362.523 6.59393 343.825 7.34972 338.513C0.702466 328.33 -1.25692 313.659 0.75074 304.936C1.68465 300.879 3.41264 298.137 5.88643 296.787C9.74692 294.681 13.5808 295.38 16.7255 297.05C17.15 291.218 18.9762 283.724 25.2938 281.378C34.801 277.849 45.5252 286.232 59.0395 307.771C66.8354 320.194 69.3258 330.204 66.4408 337.521C65.0724 340.994 62.7618 343.123 60.8174 344.375C63.1613 350.361 63.148 355.337 60.7658 359.197C58.6965 362.55 55.2822 364.236 52.3722 365.084C57.5079 374.275 55.6101 379.217 52.8384 381.806C50.7691 383.739 47.8175 384.589 44.4282 384.589L44.4298 384.591ZM10.8923 302.032C10.2613 302.032 9.62707 302.174 9.00945 302.51C8.47674 302.801 7.6577 303.993 7.10501 306.397C5.38368 313.882 7.31476 327.276 13.4376 335.866C13.9653 336.607 14.1601 337.536 13.9737 338.427C13.8122 339.217 10.1398 358.117 24.7095 369.85C34.4848 377.722 45.6434 379.612 48.3935 377.042C49.697 375.825 49.4157 371.823 44.3366 364.546C43.6424 363.554 43.5575 362.259 44.1135 361.183C44.6695 360.108 45.7749 359.429 46.9852 359.42C48.6632 359.394 53.4426 358.685 55.2339 355.758C57.1 352.707 55.402 347.827 53.6507 344.27C53.2179 343.394 53.2029 342.369 53.6075 341.48C54.012 340.591 54.7944 339.928 55.7383 339.678C55.8349 339.648 59.0428 338.668 60.4245 335.019C61.8029 331.38 61.723 324.301 53.5226 311.233C45.7716 298.881 34.9825 284.739 27.5695 287.488C23.2212 289.102 22.8167 299.074 23.3011 303.65C23.4543 305.092 22.6369 306.46 21.2951 307.01C19.9534 307.561 18.4118 307.158 17.5095 306.024C17.4762 305.984 14.2334 302.031 10.8972 302.031L10.8923 302.032Z" fill="#000072"/>
<path d="M57.1682 346.444C56.8019 346.444 56.429 346.381 56.0628 346.251C25.7448 335.329 16.9251 305.144 16.5638 303.865C16.0761 302.132 17.0832 300.333 18.8179 299.843C20.5509 299.356 22.3488 300.363 22.8398 302.092C22.9364 302.427 31.2034 330.366 58.2735 340.116C59.9682 340.726 60.8455 342.595 60.2363 344.288C59.7568 345.617 58.5049 346.444 57.1698 346.444H57.1682Z" fill="#000072"/>
<path d="M47.9741 366.567C47.6578 366.567 47.3365 366.52 47.0186 366.424C19.5306 358.002 8.28872 340.241 7.82426 339.489C6.87703 337.957 7.35147 335.949 8.88136 335.002C10.4129 334.057 12.4172 334.528 13.3645 336.054C13.5176 336.296 23.9738 352.545 48.928 360.191C50.6493 360.719 51.6165 362.542 51.0888 364.263C50.6593 365.666 49.3675 366.569 47.9724 366.569L47.9741 366.567Z" fill="#000072"/>
<path d="M323.553 70.5571C320.237 98.999 303.147 126.487 303.147 126.487C289.341 126.332 277.362 125.052 267.052 123.121H267.044C228.52 115.933 213.338 99.7065 213.338 99.7065C211.692 86.407 215.041 70.4905 218.162 59.4401C220.428 51.3795 222.579 45.9042 222.579 45.9042C282.308 35.473 323.551 70.5571 323.551 70.5571H323.553Z" fill="#9353D3"/>
<g opacity="0.2">
<path d="M323.553 70.5571C320.237 98.999 303.147 126.487 303.147 126.487C289.341 126.332 277.362 125.052 267.052 123.121C275.504 122.054 283.759 119.397 291.207 115.257C294.964 113.171 298.632 110.595 300.864 106.92C303.097 103.244 303.586 98.2398 301.092 94.7356C298.818 91.5493 294.622 90.2608 290.709 90.2458C286.789 90.2292 282.952 91.273 279.071 91.7691C264.695 93.6186 250.173 87.9302 238.544 79.2753C230.916 73.5869 224.315 66.6683 218.162 59.4401C220.428 51.3795 222.579 45.9042 222.579 45.9042C282.308 35.473 323.551 70.5571 323.551 70.5571H323.553Z" fill="#481878"/>
</g>
<path d="M303.143 129.752C303.132 129.752 303.12 129.752 303.108 129.752C237.059 129.032 211.994 103.043 210.959 101.936C210.488 101.433 210.19 100.794 210.105 100.109C207.192 76.5669 219.043 46.0042 219.549 44.714C219.965 43.6552 220.901 42.8895 222.023 42.693C253.658 37.1695 280.108 44.3328 296.729 51.313C314.763 58.8875 325.229 67.7005 325.665 68.0718C326.496 68.7776 326.917 69.8514 326.791 70.9318C323.428 99.7665 306.627 127.065 305.913 128.212C305.319 129.169 304.27 129.752 303.145 129.752H303.143ZM216.448 98.1717C220.874 102.189 245.654 122.162 301.304 123.204C304.773 117.208 316.924 94.9305 320.087 71.9722C312.679 66.3504 275.605 40.7353 224.983 48.8076C222.619 55.3716 214.57 79.4468 216.449 98.1717H216.448Z" fill="#000072"/>
<path d="M294.04 3.65016C283.649 0.77684 193.353 13.6818 191.006 24.6057C189.188 33.0659 247.288 80.0111 265.374 83.6552C278.285 86.2572 363.614 69.3652 365.309 62.7529C368.117 51.794 308.008 7.51066 294.042 3.65016H294.04Z" fill="#9353D3"/>
<g opacity="0.6">
<path d="M363.037 65.5447C352.344 45.8793 303.847 13.6152 291.598 10.2259C288.412 9.34521 279.065 9.93286 266.897 11.5127C267.077 11.7491 267.173 12.0104 267.207 12.2785C267.46 14.5275 262.571 16.923 256.295 17.6239C250.198 18.2998 245.016 17.1261 244.51 14.992C225.767 18.3247 205.376 22.9377 190.959 27.7621C189.72 25.8709 190.315 26.5152 190.528 25.538C192.875 14.6174 283.171 1.70911 293.563 4.58576C307.531 8.44792 367.641 52.7246 364.83 63.6869C364.61 64.5342 365.645 64.4277 363.037 65.5447Z" fill="white"/>
</g>
<path d="M269.138 87.1761C267.337 87.1761 265.842 87.0746 264.73 86.8498C247.964 83.4705 200.009 46.1723 189.874 30.707C188.069 27.9518 187.415 25.796 187.819 23.9199C188.251 21.9156 189.797 20.131 192.544 18.4662C209.358 8.28144 284.097 -2.48101 294.911 0.507172C303.173 2.79118 322.832 16.0557 337.983 27.9768C370.941 53.9116 369.08 61.1748 368.467 63.5603C367.908 65.7428 366.205 68.0534 351.712 72.3001C343.579 74.6824 332.389 77.3642 320.2 79.8513C305.755 82.7979 280.944 87.1745 269.14 87.1745L269.138 87.1761ZM194.285 25.2467C195.226 28.3381 204.973 39.3169 224.124 54.4759C241.906 68.5528 258.742 78.9957 266.017 80.4606C271.177 81.5011 292.411 78.7609 316.508 73.9482C342.208 68.8142 358.73 63.84 362.123 61.5011C361.559 58.4663 353.673 48.5462 333.336 32.6214C317.039 19.8579 299.398 8.51451 293.173 6.79318C289.216 5.69779 267.08 7.52399 241.645 11.8922C210.193 17.2943 196.308 22.7296 194.287 25.2467H194.285Z" fill="#000072"/>
<g opacity="0.2">
<path d="M365.307 62.7529C363.613 69.3619 278.279 86.2556 265.369 83.6569C247.285 80.0145 189.188 33.0642 191.004 24.6058C191.322 23.1308 193.245 21.6142 196.374 20.1077C210.954 36.5934 250.927 67.1229 265.369 70.0311C276.461 72.2719 341.012 60.1127 360.05 52.4533C363.816 56.8615 365.885 60.5056 365.307 62.7546V62.7529Z" fill="#000072"/>
</g>
<path d="M343.185 157.642C341.522 158.335 339.787 158.946 337.986 159.46C342.859 158.368 351.066 156.933 355.011 158.556C356.078 158.987 356.829 159.64 357.122 160.586C357.212 160.887 357.26 161.238 357.243 161.644C357.049 169.191 338.467 193.802 286.824 186.917C284.738 186.632 282.594 186.306 280.401 185.923L278.943 184.31L274.192 179.061L236.346 137.188C236.346 137.188 243.484 137.481 253.721 136.594C263.305 135.755 275.602 133.888 287.288 129.765C311.452 121.248 336.063 101.689 345.239 107.769C345.272 107.794 345.312 107.817 345.346 107.842C345.982 108.282 346.446 108.796 346.764 109.365C349.185 113.759 342.885 121.719 337.295 127.531C333.971 130.978 330.897 133.667 330.05 134.409C330.481 134.092 331.468 133.366 332.854 132.397C340.351 127.14 359.666 114.648 367.35 119.692C368.124 120.198 368.752 120.857 369.224 121.631C369.273 121.704 369.314 121.778 369.346 121.859C373.698 129.593 364.001 148.483 344.49 157.098C344.059 157.286 343.626 157.473 343.187 157.644L343.185 157.642Z" fill="#C9A9E9"/>
<g opacity="0.6">
<path d="M357.277 161.456C353.275 162.019 349.249 162.368 345.239 161.946C342.86 161.693 340.536 161.163 338.231 160.561C335.419 159.82 335.712 158.979 338.369 158.418C339.982 158.075 341.597 157.757 343.218 157.456C341.555 158.148 339.82 158.759 338.019 159.274C342.892 158.182 351.099 156.747 355.044 158.37C356.111 158.801 356.862 159.453 357.155 160.399C357.245 160.7 357.293 161.052 357.277 161.458V161.456Z" fill="white"/>
</g>
<g opacity="0.6">
<path d="M369.346 121.857C363.227 122.68 357.26 124.726 351.4 126.755C345.141 128.922 338.858 131.554 332.469 133.274C332.518 132.998 332.649 132.695 332.852 132.393C340.35 127.136 359.664 114.644 367.349 119.688C368.123 120.194 368.75 120.854 369.223 121.628C369.271 121.701 369.313 121.774 369.345 121.856L369.346 121.857Z" fill="white"/>
</g>
<g opacity="0.6">
<path d="M346.762 109.365C337.154 113.627 328.247 119.69 318.802 124.443C309.046 129.357 298.59 132.853 287.858 134.866C278.167 136.692 268.257 137.311 258.414 136.675C257.33 136.602 255.391 136.717 253.719 136.594C263.303 135.755 275.6 133.888 287.287 129.765C311.45 121.248 336.062 101.689 345.238 107.769C345.271 107.794 345.311 107.817 345.344 107.842C345.98 108.282 346.444 108.796 346.762 109.365Z" fill="white"/>
</g>
<g opacity="0.2">
<path d="M337.294 127.531C325.452 136.276 312.111 142.77 297.63 144.841C310.751 137.171 323.17 128.297 334.678 118.355C338.436 115.112 342.151 111.656 345.346 107.842C350.831 111.656 343.609 120.963 337.294 127.531Z" fill="#000072"/>
</g>
<g opacity="0.2">
<path d="M344.229 155.996C342.419 156.427 340.603 156.818 338.785 157.186C325.917 159.795 312.649 161.301 299.659 159.395C312.446 156.544 325.126 152.835 336.869 147.025C348.612 141.207 359.434 133.203 367.373 122.78C367.919 122.054 368.457 121.313 368.963 120.531C373.624 128.118 363.927 147.301 344.229 155.998V155.996Z" fill="#000072"/>
</g>
<g opacity="0.2">
<path d="M286.563 185.811C283.912 185.035 281.277 184.163 278.684 183.207C275.519 182.05 272.403 180.772 269.343 179.387C266.896 178.277 265.541 177.547 263.644 175.63C266.469 177.839 270.333 178 273.936 177.957H274.27C289.624 177.76 305.064 176.757 319.96 173.058C332.373 169.976 344.437 164.94 354.75 157.456C355.819 157.885 356.569 158.543 356.866 159.487C358.69 165.358 340.976 193.073 286.566 185.813L286.563 185.811Z" fill="#000072"/>
</g>
<path d="M236.16 134.821C242.292 133.597 248.37 132.808 254.407 131.996C260.446 131.211 266.444 130.274 272.371 129.082C278.302 127.894 284.124 126.344 289.726 124.146C295.347 121.949 300.849 119.275 306.338 116.487C311.833 113.699 317.288 110.744 322.982 107.992C325.84 106.628 328.735 105.29 331.861 104.191C333.41 103.627 335.049 103.156 336.774 102.795C338.5 102.445 340.367 102.21 342.457 102.47C342.98 102.547 343.52 102.668 344.046 102.783C344.585 102.966 345.128 103.139 345.654 103.381C346.693 103.908 347.741 104.554 348.614 105.625C348.825 105.894 349.056 106.139 349.228 106.444C349.401 106.747 349.564 107.058 349.716 107.373C349.887 107.684 349.959 108.01 350.059 108.336C350.14 108.659 350.257 109.002 350.283 109.312C350.348 109.935 350.42 110.594 350.353 111.148C350.333 111.436 350.313 111.729 350.28 112.011L350.125 112.795C349.666 114.859 348.847 116.492 347.984 118.015C347.11 119.528 346.146 120.907 345.146 122.225C343.13 124.839 340.962 127.228 338.713 129.503C336.449 131.787 334.169 133.927 331.68 136.054L327.62 130.955C331.199 128.305 334.775 125.921 338.522 123.629C342.266 121.36 346.123 119.235 350.252 117.448C352.321 116.56 354.458 115.758 356.749 115.157C359.041 114.576 361.497 114.133 364.29 114.416C364.637 114.451 365.004 114.536 365.361 114.601C365.717 114.667 366.073 114.739 366.444 114.879C366.811 115.004 367.175 115.127 367.537 115.268C367.896 115.45 368.256 115.641 368.609 115.838C369.975 116.678 371.226 117.882 371.973 119.294C372.724 120.677 373.187 122.16 373.315 123.537C373.438 124.248 373.4 124.901 373.428 125.583C373.4 126.239 373.361 126.895 373.285 127.531C372.952 130.064 372.203 132.378 371.269 134.554C370.327 136.727 369.188 138.766 367.894 140.674C365.322 144.504 362.208 147.884 358.74 150.827C355.267 153.762 351.427 156.256 347.338 158.237C343.242 160.199 338.907 161.666 334.462 162.583L334.443 162.587C332.68 162.951 330.957 161.817 330.593 160.055C330.242 158.358 331.289 156.693 332.94 156.247C335.361 155.598 337.671 155.085 340.082 154.634C342.479 154.193 344.91 153.837 347.44 153.667C348.708 153.589 350.004 153.557 351.365 153.639C352.73 153.734 354.157 153.893 355.795 154.504C356.623 154.854 357.513 155.268 358.379 156.132C359.226 156.941 359.95 158.195 360.105 159.427C360.308 160.67 360.155 161.526 360.012 162.363C359.837 163.164 359.622 163.912 359.348 164.578C358.289 167.294 356.766 169.442 355.111 171.451C353.44 173.436 351.597 175.215 349.624 176.797C345.672 179.951 341.302 182.452 336.734 184.346C332.169 186.259 327.427 187.629 322.636 188.56C317.841 189.504 312.997 189.945 308.166 190.269C306.957 190.326 305.747 190.419 304.538 190.444L300.913 190.466C299.706 190.436 298.502 190.368 297.3 190.271L295.497 190.133L293.708 189.89C292.516 189.727 291.324 189.562 290.143 189.329C288.966 189.081 287.796 188.784 286.634 188.47C286.055 188.305 285.472 188.15 284.899 187.954C284.327 187.756 283.759 187.532 283.191 187.323C282.059 186.873 280.934 186.414 279.84 185.823C279.284 185.522 279.076 184.827 279.378 184.271C279.554 183.943 279.879 183.735 280.22 183.684C285.074 182.964 289.667 183.154 294.252 183.246C298.828 183.337 303.371 183.634 307.913 183.57C312.454 183.529 316.969 183.006 321.385 182.16C325.8 181.303 330.115 180.05 334.205 178.335C338.302 176.64 342.144 174.419 345.529 171.721C347.217 170.369 348.758 168.868 350.11 167.266C351.44 165.675 352.629 163.908 353.262 162.237C353.441 161.821 353.535 161.43 353.616 161.09C353.681 160.78 353.688 160.449 353.679 160.536C353.713 160.592 353.784 160.782 353.806 160.78C353.857 160.79 353.663 160.682 353.42 160.576C352.857 160.359 351.931 160.199 350.961 160.144C349.98 160.084 348.925 160.104 347.854 160.171C343.554 160.476 338.971 161.401 334.683 162.528L333.162 156.192C337.082 155.38 340.894 154.09 344.498 152.365C348.094 150.622 351.475 148.426 354.523 145.851C357.565 143.271 360.287 140.306 362.476 137.043C363.579 135.418 364.527 133.709 365.282 131.962C366.035 130.221 366.591 128.426 366.812 126.722C367.044 125.024 366.831 123.444 366.295 122.503C365.752 121.579 364.974 121.095 363.521 120.889C362.055 120.735 360.222 120.982 358.392 121.463C356.551 121.944 354.677 122.64 352.824 123.436C349.111 125.04 345.466 127.038 341.908 129.195C338.369 131.355 334.835 133.72 331.55 136.152C330.103 137.224 328.061 136.92 326.989 135.473C325.968 134.096 326.195 132.18 327.467 131.075L327.49 131.055C331.971 127.178 336.406 122.846 339.964 118.263C340.838 117.111 341.65 115.938 342.328 114.764C343.002 113.602 343.541 112.4 343.746 111.428L343.824 111.072L343.841 110.774C343.886 110.554 343.824 110.441 343.836 110.291C343.758 110.061 343.771 109.938 343.613 109.805C343.521 109.648 343.213 109.462 342.885 109.279C342.707 109.2 342.501 109.151 342.314 109.064C342.08 109.031 341.861 108.972 341.62 108.931C340.623 108.796 339.359 108.906 338.054 109.182C336.746 109.46 335.392 109.835 334.026 110.336C331.294 111.291 328.544 112.555 325.805 113.863C320.323 116.512 314.861 119.465 309.291 122.294C303.721 125.129 298.039 127.87 292.113 130.224C286.168 132.575 280.03 134.499 273.827 135.899C267.618 137.304 261.309 138.133 254.994 138.48C251.838 138.669 248.667 138.626 245.509 138.428C242.346 138.198 239.204 137.814 236.06 136.985C235.467 136.828 235.113 136.221 235.269 135.626C235.381 135.202 235.722 134.901 236.125 134.819L236.156 134.812L236.16 134.821Z" fill="#000072"/>
<path d="M318.261 157.046C318.187 157.046 318.116 157.045 318.041 157.04C316.245 156.92 314.885 155.367 315.004 153.571C315.046 152.941 319.203 90.4591 320.463 76.0459C321.216 67.4626 294.986 48.786 276.121 38.2666C274.548 37.3893 273.986 35.405 274.863 33.8318C275.739 32.2603 277.725 31.6943 279.298 32.5733C279.787 32.8463 291.417 39.3537 303.095 47.7772C319.797 59.8232 327.603 69.2572 326.957 76.6152C325.704 90.9602 321.55 153.376 321.509 154.005C321.395 155.728 319.96 157.048 318.259 157.048L318.261 157.046Z" fill="#000072"/>
<path d="M308.728 159.963C309.323 155.189 314.039 151.849 319.259 152.5C324.482 153.151 328.234 157.547 327.638 162.32C327.042 167.095 322.328 170.434 317.105 169.783C311.883 169.132 308.132 164.736 308.728 159.963Z" fill="#FDCB38"/>
<path d="M318.399 172.87C317.849 172.87 317.293 172.835 316.732 172.766C313.46 172.359 310.518 170.797 308.447 168.37C306.31 165.864 305.351 162.748 305.744 159.592C306.136 156.435 307.833 153.649 310.52 151.744C313.123 149.9 316.36 149.106 319.631 149.517C322.904 149.925 325.845 151.486 327.918 153.913C330.055 156.419 331.016 159.537 330.623 162.693C329.889 168.58 324.573 172.873 318.4 172.873L318.399 172.87ZM317.953 155.425C316.508 155.425 315.129 155.848 313.997 156.65C312.705 157.566 311.893 158.874 311.712 160.334C311.53 161.794 311.995 163.263 313.023 164.466C314.117 165.748 315.699 166.577 317.478 166.798C321.046 167.24 324.265 165.065 324.655 161.947C324.836 160.487 324.372 159.021 323.343 157.817C322.249 156.535 320.666 155.706 318.887 155.485C318.574 155.447 318.262 155.427 317.953 155.427V155.425Z" fill="#000072"/>
<defs>
<linearGradient id="paint0_linear_42_46" x1="267.515" y1="201.381" x2="180.896" y2="272.981" gradientUnits="userSpaceOnUse">
<stop stop-color="white"/>
<stop offset="0.99"/>
</linearGradient>
<linearGradient id="paint1_linear_42_46" x1="267.515" y1="201.381" x2="180.896" y2="272.981" gradientUnits="userSpaceOnUse">
<stop stop-color="white"/>
<stop offset="0.99" stop-color="white"/>
</linearGradient>
<linearGradient id="paint2_linear_42_46" x1="249.564" y1="179.667" x2="162.947" y2="251.265" gradientUnits="userSpaceOnUse">
<stop stop-color="white"/>
<stop offset="0.99"/>
</linearGradient>
<linearGradient id="paint3_linear_42_46" x1="249.564" y1="179.667" x2="162.947" y2="251.265" gradientUnits="userSpaceOnUse">
<stop stop-color="white"/>
<stop offset="0.99" stop-color="white"/>
</linearGradient>
<linearGradient id="paint4_linear_42_46" x1="167.658" y1="173.306" x2="90.8192" y2="233.029" gradientUnits="userSpaceOnUse">
<stop stop-color="white"/>
<stop offset="0.99"/>
</linearGradient>
<linearGradient id="paint5_linear_42_46" x1="167.658" y1="173.306" x2="90.8192" y2="233.03" gradientUnits="userSpaceOnUse">
<stop stop-color="white"/>
<stop offset="0.99" stop-color="white"/>
</linearGradient>
<linearGradient id="paint6_linear_42_46" x1="152.727" y1="154.098" x2="75.89" y2="213.822" gradientUnits="userSpaceOnUse">
<stop stop-color="white"/>
<stop offset="0.99"/>
</linearGradient>
<linearGradient id="paint7_linear_42_46" x1="152.727" y1="154.098" x2="75.89" y2="213.822" gradientUnits="userSpaceOnUse">
<stop stop-color="white"/>
<stop offset="0.99" stop-color="white"/>
</linearGradient>
<clipPath id="clip0_42_46">
<rect width="70.2781" height="56.1396" fill="white" transform="translate(193.739 201.018)"/>
</clipPath>
<clipPath id="clip1_42_46">
<rect width="76.3094" height="63.4477" fill="white" transform="translate(180.034 177.997)"/>
</clipPath>
<clipPath id="clip2_42_46">
<rect width="60.1049" height="48.014" fill="white" transform="translate(92.5355 180.712)"/>
</clipPath>
<clipPath id="clip3_42_46">
<rect width="65.2639" height="54.2634" fill="white" transform="translate(80.8142 161.022)"/>
</clipPath>
</defs>
</svg>
